<svg fill="none" viewBox="0 0 1200 708" xmlns="http://www.w3.org/2000/svg" xmlns:xlink="http://www.w3.org/1999/xlink"><filter id="a" color-interpolation-filters="sRGB" filterUnits="userSpaceOnUse" height="27.437" width="27.437" x="946.282" y="336.282"><feFlood flood-opacity="0" result="BackgroundImageFix"/><feBlend in="SourceGraphic" in2="BackgroundImageFix" result="shape"/><feGaussianBlur result="effect1_foregroundBlur" stdDeviation="1.359"/></filter><filter id="b" color-interpolation-filters="sRGB" filterUnits="userSpaceOnUse" height="27.437" width="27.437" x="106.282" y="456.282"><feFlood flood-opacity="0" result="BackgroundImageFix"/><feBlend in="SourceGraphic" in2="BackgroundImageFix" result="shape"/><feGaussianBlur result="effect1_foregroundBlur" stdDeviation="1.359"/></filter><filter id="c" color-interpolation-filters="sRGB" filterUnits="userSpaceOnUse" height="27.437" width="27.437" x="226.282" y="216.282"><feFlood flood-opacity="0" result="BackgroundImageFix"/><feBlend in="SourceGraphic" in2="BackgroundImageFix" result="shape"/><feGaussianBlur result="effect1_foregroundBlur" stdDeviation="1.359"/></filter><filter id="d" color-interpolation-filters="sRGB" filterUnits="userSpaceOnUse" height="27.437" width="27.437" x="1066.28" y="216.282"><feFlood flood-opacity="0" result="BackgroundImageFix"/><feBlend in="SourceGraphic" in2="BackgroundImageFix" result="shape"/><feGaussianBlur result="effect1_foregroundBlur" stdDeviation="1.359"/></filter><filter id="e" color-interpolation-filters="sRGB" filterUnits="userSpaceOnUse" height="27.437" width="27.437" x="1066.28" y="576.282"><feFlood flood-opacity="0" result="BackgroundImageFix"/><feBlend in="SourceGraphic" in2="BackgroundImageFix" result="shape"/><feGaussianBlur result="effect1_foregroundBlur" stdDeviation="1.359"/></filter><radialGradient id="f" cx="0" cy="0" gradientTransform="matrix(0 708 -1200 0 605.231 708)" gradientUnits="userSpaceOnUse" r="1"><stop offset="0" stop-color="#30516f"/><stop offset="1" stop-color="#0d1923"/></radialGradient><linearGradient id="g"><stop offset="0" stop-color="#d7fff8" stop-opacity=".01"/><stop offset="1" stop-color="#85e7d7" stop-opacity=".108"/></linearGradient><linearGradient id="h" gradientUnits="userSpaceOnUse" x1="30" x2="90" xlink:href="#g" y1="440" y2="500"/><linearGradient id="i" gradientUnits="userSpaceOnUse" x1="210" x2="270" xlink:href="#g" y1="380" y2="440"/><linearGradient id="j" gradientUnits="userSpaceOnUse" x1="930" x2="870" xlink:href="#g" y1="440" y2="500"/><linearGradient id="k" gradientUnits="userSpaceOnUse" x1="1050" x2="1110" xlink:href="#g" y1="500" y2="560"/><linearGradient id="l" gradientUnits="userSpaceOnUse" x1="90" x2="150" xlink:href="#g" y1="140" y2="200"/><linearGradient id="m" gradientUnits="userSpaceOnUse" x1="270" x2="210" xlink:href="#g" y1="260" y2="320"/><linearGradient id="n" gradientUnits="userSpaceOnUse" x1="1050" x2="990" xlink:href="#g" y1="200" y2="260"/><linearGradient id="o" gradientUnits="userSpaceOnUse" x1="990" x2="1050" xlink:href="#g" y1="320" y2="380"/><linearGradient id="p"><stop offset="0" stop-color="#35dccb"/><stop offset="1" stop-color="#18b69b" stop-opacity=".01"/></linearGradient><radialGradient id="q" cx="0" cy="0" gradientTransform="matrix(0 12.2819 -12.2819 0 960 350)" gradientUnits="userSpaceOnUse" r="1" xlink:href="#p"/><radialGradient id="r" cx="0" cy="0" gradientTransform="matrix(0 12.2819 -12.2819 0 120 470)" gradientUnits="userSpaceOnUse" r="1" xlink:href="#p"/><radialGradient id="s" cx="0" cy="0" gradientTransform="matrix(0 12.2819 -12.2819 0 240 230)" gradientUnits="userSpaceOnUse" r="1" xlink:href="#p"/><radialGradient id="t" cx="0" cy="0" gradientTransform="matrix(0 12.2819 -12.2819 0 1080 230)" gradientUnits="userSpaceOnUse" r="1" xlink:href="#p"/><radialGradient id="u" cx="0" cy="0" gradientTransform="matrix(0 12.2819 -12.2819 0 1080 590)" gradientUnits="userSpaceOnUse" r="1" xlink:href="#p"/><linearGradient id="v" gradientUnits="userSpaceOnUse" x1="-80.975" x2="-80.975" y1="151.219" y2="954.77"><stop offset="0" stop-color="#0d1923"/><stop offset="1" stop-color="#0d1923" stop-opacity=".01"/></linearGradient><mask id="w" height="708" maskUnits="userSpaceOnUse" width="1200" x="0" y="0"><path clip-rule="evenodd" d="m0 0h1200v708s-289.667-38-600-38-600 38-600 38z" fill="#fff" fill-rule="evenodd"/></mask><path clip-rule="evenodd" d="m0 0h1200v708s-289.667-38-600-38-600 38-600 38z" fill="url(#f)" fill-rule="evenodd"/><g mask="url(#w)"><g clip-rule="evenodd" stroke="#18b69b" stroke-linecap="round" stroke-linejoin="round" stroke-opacity=".2"><path d="m0 350-60 60h30c16.569 0 30-13.431 30-30zm-60 60 60 60h-30c-16.569 0-30-13.431-30-30zm60-60 60 60h-30c-16.569 0-30-13.431-30-30zm120 0-60 60h30c16.569 0 30-13.431 30-30zm-60 60-60 60h30c16.569 0 30-13.431 30-30z"/><path d="m60 410 60 60h-30c-16.569 0-30-13.431-30-30z" fill="url(#h)" fill-rule="evenodd"/><path d="m120 350 60 60h-30c-16.569 0-30-13.431-30-30zm120 0-60 60h30c16.569 0 30-13.431 30-30zm-60 60-60 60h30c16.569 0 30-13.431 30-30zm0 0 60 60h-30c-16.569 0-30-13.431-30-30z"/><path d="m240 350 60 60h-30c-16.569 0-30-13.431-30-30z" fill="url(#i)" fill-rule="evenodd"/><path d="m360 350-60 60h30c16.569 0 30-13.431 30-30zm-60 60-60 60h30c16.569 0 30-13.431 30-30zm0 0 60 60h-30c-16.569 0-30-13.431-30-30zm-300 60-60 60h30c16.569 0 30-13.431 30-30zm-60 60 60 60h-30c-16.569 0-30-13.431-30-30zm60-60 60 60h-30c-16.569 0-30-13.431-30-30zm120 0-60 60h30c16.569 0 30-13.431 30-30zm-60 60-60 60h30c16.569 0 30-13.431 30-30zm0 0 60 60h-30c-16.569 0-30-13.431-30-30zm60-60 60 60h-30c-16.569 0-30-13.431-30-30zm120 0-60 60h30c16.569 0 30-13.431 30-30zm-60 60-60 60h30c16.569 0 30-13.431 30-30zm0 0 60 60h-30c-16.569 0-30-13.431-30-30zm60-60 60 60h-30c-16.569 0-30-13.431-30-30zm120 0-60 60h30c16.569 0 30-13.431 30-30zm-60 60-60 60h30c16.569 0 30-13.431 30-30zm0 0 60 60h-30c-16.569 0-30-13.431-30-30zm-300 60-60 60h30c16.569 0 30-13.431 30-30zm-60 60 60 60h-30c-16.569 0-30-13.431-30-30zm60-60 60 60h-30c-16.569 0-30-13.431-30-30zm120 0-60 60h30c16.569 0 30-13.431 30-30zm-60 60-60 60h30c16.569 0 30-13.431 30-30zm0 0 60 60h-30c-16.569 0-30-13.431-30-30zm60-60 60 60h-30c-16.569 0-30-13.431-30-30zm120 0-60 60h30c16.569 0 30-13.431 30-30zm-60 60-60 60h30c16.569 0 30-13.431 30-30zm0 0 60 60h-30c-16.569 0-30-13.431-30-30zm60-60 60 60h-30c-16.569 0-30-13.431-30-30zm120 0-60 60h30c16.569 0 30-13.431 30-30zm-60 60-60 60h30c16.569 0 30-13.431 30-30zm0 0 60 60h-30c-16.569 0-30-13.431-30-30zm540-300 60 60h-30c-16.569 0-30-13.431-30-30zm120 0-60 60h30c16.569 0 30-13.431 30-30z"/><path d="m900 410-60 60h30c16.569 0 30-13.431 30-30z" fill="url(#j)" fill-rule="evenodd"/><path d="m900 410 60 60h-30c-16.569 0-30-13.431-30-30zm60-60 60 60h-30c-16.569 0-30-13.431-30-30zm120 0-60 60h30c16.57 0 30-13.431 30-30zm-60 60-60 60h30c16.57 0 30-13.431 30-30zm0 0 60 60h-30c-16.57 0-30-13.431-30-30zm60-60 60 60h-30c-16.57 0-30-13.431-30-30zm120 0-60 60h30c16.57 0 30-13.431 30-30zm-60 60-60 60h30c16.57 0 30-13.431 30-30zm0 0 60 60h-30c-16.57 0-30-13.431-30-30zm60-60 60 60h-30c-16.57 0-30-13.431-30-30zm60 60-60 60h30c16.57 0 30-13.431 30-30zm-420 60 60 60h-30c-16.569 0-30-13.431-30-30zm120 0-60 60h30c16.569 0 30-13.431 30-30zm-60 60-60 60h30c16.569 0 30-13.431 30-30zm0 0 60 60h-30c-16.569 0-30-13.431-30-30zm60-60 60 60h-30c-16.569 0-30-13.431-30-30zm120 0-60 60h30c16.57 0 30-13.431 30-30zm-60 60-60 60h30c16.57 0 30-13.431 30-30zm0 0 60 60h-30c-16.57 0-30-13.431-30-30z"/><path d="m1080 470 60 60h-30c-16.57 0-30-13.431-30-30z" fill="url(#k)" fill-rule="evenodd"/><path d="m1200 470-60 60h30c16.57 0 30-13.431 30-30zm-60 60-60 60h30c16.57 0 30-13.431 30-30zm0 0 60 60h-30c-16.57 0-30-13.431-30-30zm60-60 60 60h-30c-16.57 0-30-13.431-30-30zm60 60-60 60h30c16.57 0 30-13.431 30-30zm-420 60 60 60h-30c-16.569 0-30-13.431-30-30zm120 0-60 60h30c16.569 0 30-13.431 30-30zm-60 60-60 60h30c16.569 0 30-13.431 30-30zm0 0 60 60h-30c-16.569 0-30-13.431-30-30zm60-60 60 60h-30c-16.569 0-30-13.431-30-30zm120 0-60 60h30c16.57 0 30-13.431 30-30zm-60 60-60 60h30c16.57 0 30-13.431 30-30zm0 0 60 60h-30c-16.57 0-30-13.431-30-30zm60-60 60 60h-30c-16.57 0-30-13.431-30-30zm120 0-60 60h30c16.57 0 30-13.431 30-30zm-60 60-60 60h30c16.57 0 30-13.431 30-30zm0 0 60 60h-30c-16.57 0-30-13.431-30-30zm60-60 60 60h-30c-16.57 0-30-13.431-30-30zm60 60-60 60h30c16.57 0 30-13.431 30-30zm-900 60 60-60h-30c-16.569 0-30 13.431-30 30zm120 0-60-60h30c16.569 0 30 13.431 30 30zm-60-60-60-60h30c16.569 0 30 13.431 30 30zm0 0 60-60h-30c-16.569 0-30 13.431-30 30zm60 60 60-60h-30c-16.569 0-30 13.431-30 30zm120 0-60-60h30c16.569 0 30 13.431 30 30zm-60-60-60-60h30c16.569 0 30 13.431 30 30zm0 0 60-60h-30c-16.569 0-30 13.431-30 30zm60 60 60-60h-30c-16.569 0-30 13.431-30 30zm120 0-60-60h30c16.569 0 30 13.431 30 30zm-60-60-60-60h30c16.569 0 30 13.431 30 30zm0 0 60-60h-30c-16.569 0-30 13.431-30 30zm60 60 60-60h-30c-16.569 0-30 13.431-30 30zm120 0-60-60h30c16.569 0 30 13.431 30 30zm-60-60-60-60h30c16.569 0 30 13.431 30 30zm0 0 60-60h-30c-16.569 0-30 13.431-30 30zm-420-60 60-60h-30c-16.569 0-30 13.431-30 30zm120 0-60-60h30c16.569 0 30 13.431 30 30zm-60-60-60-60h30c16.569 0 30 13.431 30 30zm0 0 60-60h-30c-16.569 0-30 13.431-30 30zm60 60 60-60h-30c-16.569 0-30 13.431-30 30zm120 0-60-60h30c16.569 0 30 13.431 30 30zm-60-60-60-60h30c16.569 0 30 13.431 30 30zm0 0 60-60h-30c-16.569 0-30 13.431-30 30zm60 60 60-60h-30c-16.569 0-30 13.431-30 30zm120 0-60-60h30c16.569 0 30 13.431 30 30zm-60-60-60-60h30c16.569 0 30 13.431 30 30zm0 0 60-60h-30c-16.569 0-30 13.431-30 30zm60 60 60-60h-30c-16.569 0-30 13.431-30 30zm120 0-60-60h30c16.569 0 30 13.431 30 30zm-60-60-60-60h30c16.569 0 30 13.431 30 30zm0 0 60-60h-30c-16.569 0-30 13.431-30 30zm-420-60 60-60h-30c-16.569 0-30 13.431-30 30zm120 0-60-60h30c16.569 0 30 13.431 30 30zm-60-60-60-60h30c16.569 0 30 13.431 30 30zm0 0 60-60h-30c-16.569 0-30 13.431-30 30zm60 60 60-60h-30c-16.569 0-30 13.431-30 30zm120 0-60-60h30c16.569 0 30 13.431 30 30zm-60-60-60-60h30c16.569 0 30 13.431 30 30zm0 0 60-60h-30c-16.569 0-30 13.431-30 30zm60 60 60-60h-30c-16.569 0-30 13.431-30 30zm120 0-60-60h30c16.569 0 30 13.431 30 30zm-60-60-60-60h30c16.569 0 30 13.431 30 30zm0 0 60-60h-30c-16.569 0-30 13.431-30 30zm60 60 60-60h-30c-16.569 0-30 13.431-30 30zm120 0-60-60h30c16.569 0 30 13.431 30 30zm-60-60-60-60h30c16.569 0 30 13.431 30 30zm0 0 60-60h-30c-16.569 0-30 13.431-30 30zm-780-420-60 60h30c16.569 0 30-13.431 30-30zm-60 60 60 60h-30c-16.569 0-30-13.431-30-30zm60-60 60 60h-30c-16.569 0-30-13.431-30-30zm120 0-60 60h30c16.569 0 30-13.431 30-30zm-60 60-60 60h30c16.569 0 30-13.431 30-30zm0 0 60 60h-30c-16.569 0-30-13.431-30-30zm60-60 60 60h-30c-16.569 0-30-13.431-30-30zm120 0-60 60h30c16.569 0 30-13.431 30-30zm-60 60-60 60h30c16.569 0 30-13.431 30-30zm0 0 60 60h-30c-16.569 0-30-13.431-30-30zm60-60 60 60h-30c-16.569 0-30-13.431-30-30zm120 0-60 60h30c16.569 0 30-13.431 30-30zm-60 60-60 60h30c16.569 0 30-13.431 30-30zm0 0 60 60h-30c-16.569 0-30-13.431-30-30zm-300 60-60 60h30c16.569 0 30-13.431 30-30zm-60 60 60 60h-30c-16.569 0-30-13.431-30-30zm60-60 60 60h-30c-16.569 0-30-13.431-30-30zm120 0-60 60h30c16.569 0 30-13.431 30-30zm-60 60-60 60h30c16.569 0 30-13.431 30-30zm0 0 60 60h-30c-16.569 0-30-13.431-30-30z"/><path d="m120 110 60 60h-30c-16.569 0-30-13.431-30-30z" fill="url(#l)" fill-rule="evenodd"/><path d="m240 110-60 60h30c16.569 0 30-13.431 30-30zm-60 60-60 60h30c16.569 0 30-13.431 30-30zm0 0 60 60h-30c-16.569 0-30-13.431-30-30zm60-60 60 60h-30c-16.569 0-30-13.431-30-30zm120 0-60 60h30c16.569 0 30-13.431 30-30zm-60 60-60 60h30c16.569 0 30-13.431 30-30zm0 0 60 60h-30c-16.569 0-30-13.431-30-30zm-300 60-60 60h30c16.569 0 30-13.431 30-30zm-60 60 60 60h-30c-16.569 0-30-13.431-30-30zm60-60 60 60h-30c-16.569 0-30-13.431-30-30zm120 0-60 60h30c16.569 0 30-13.431 30-30zm-60 60-60 60h30c16.569 0 30-13.431 30-30zm0 0 60 60h-30c-16.569 0-30-13.431-30-30zm60-60 60 60h-30c-16.569 0-30-13.431-30-30z"/><path d="m240 230-60 60h30c16.569 0 30-13.431 30-30z" fill="url(#m)" fill-rule="evenodd"/><path d="m180 290-60 60h30c16.569 0 30-13.431 30-30zm0 0 60 60h-30c-16.569 0-30-13.431-30-30zm60-60 60 60h-30c-16.569 0-30-13.431-30-30zm120 0-60 60h30c16.569 0 30-13.431 30-30zm-60 60-60 60h30c16.569 0 30-13.431 30-30zm0 0 60 60h-30c-16.569 0-30-13.431-30-30zm540-300 60 60h-30c-16.569 0-30-13.431-30-30zm120 0-60 60h30c16.569 0 30-13.431 30-30zm-60 60-60 60h30c16.569 0 30-13.431 30-30zm0 0 60 60h-30c-16.569 0-30-13.431-30-30zm60-60 60 60h-30c-16.569 0-30-13.431-30-30zm120 0-60 60h30c16.57 0 30-13.431 30-30zm-60 60-60 60h30c16.57 0 30-13.431 30-30zm0 0 60 60h-30c-16.57 0-30-13.431-30-30zm60-60 60 60h-30c-16.57 0-30-13.431-30-30zm120 0-60 60h30c16.57 0 30-13.431 30-30zm-60 60-60 60h30c16.57 0 30-13.431 30-30zm0 0 60 60h-30c-16.57 0-30-13.431-30-30zm60-60 60 60h-30c-16.57 0-30-13.431-30-30zm60 60-60 60h30c16.57 0 30-13.431 30-30zm-420 60 60 60h-30c-16.569 0-30-13.431-30-30zm120 0-60 60h30c16.569 0 30-13.431 30-30zm-60 60-60 60h30c16.569 0 30-13.431 30-30zm0 0 60 60h-30c-16.569 0-30-13.431-30-30zm60-60 60 60h-30c-16.569 0-30-13.431-30-30zm120 0-60 60h30c16.57 0 30-13.431 30-30z"/><path d="m1020 170-60 60h30c16.57 0 30-13.431 30-30z" fill="url(#n)" fill-rule="evenodd"/><path d="m1020 170 60 60h-30c-16.57 0-30-13.431-30-30zm60-60 60 60h-30c-16.57 0-30-13.431-30-30zm120 0-60 60h30c16.57 0 30-13.431 30-30zm-60 60-60 60h30c16.57 0 30-13.431 30-30zm0 0 60 60h-30c-16.57 0-30-13.431-30-30zm60-60 60 60h-30c-16.57 0-30-13.431-30-30zm60 60-60 60h30c16.57 0 30-13.431 30-30zm-420 60 60 60h-30c-16.569 0-30-13.431-30-30zm120 0-60 60h30c16.569 0 30-13.431 30-30zm-60 60-60 60h30c16.569 0 30-13.431 30-30zm0 0 60 60h-30c-16.569 0-30-13.431-30-30zm60-60 60 60h-30c-16.569 0-30-13.431-30-30zm120 0-60 60h30c16.57 0 30-13.431 30-30zm-60 60-60 60h30c16.57 0 30-13.431 30-30z"/><path d="m1020 290 60 60h-30c-16.57 0-30-13.431-30-30z" fill="url(#o)" fill-rule="evenodd"/><path d="m1080 230 60 60h-30c-16.57 0-30-13.431-30-30zm120 0-60 60h30c16.57 0 30-13.431 30-30zm-60 60-60 60h30c16.57 0 30-13.431 30-30zm0 0 60 60h-30c-16.57 0-30-13.431-30-30zm60-60 60 60h-30c-16.57 0-30-13.431-30-30zm60 60-60 60h30c16.57 0 30-13.431 30-30zm-900 60 60-60h-30c-16.569 0-30 13.431-30 30zm120 0-60-60h30c16.569 0 30 13.431 30 30zm-60-60-60-60h30c16.569 0 30 13.431 30 30zm0 0 60-60h-30c-16.569 0-30 13.431-30 30zm60 60 60-60h-30c-16.569 0-30 13.431-30 30zm120 0-60-60h30c16.569 0 30 13.431 30 30zm-60-60-60-60h30c16.569 0 30 13.431 30 30zm0 0 60-60h-30c-16.569 0-30 13.431-30 30zm60 60 60-60h-30c-16.569 0-30 13.431-30 30zm120 0-60-60h30c16.569 0 30 13.431 30 30zm-60-60-60-60h30c16.569 0 30 13.431 30 30zm0 0 60-60h-30c-16.569 0-30 13.431-30 30zm60 60 60-60h-30c-16.569 0-30 13.431-30 30zm120 0-60-60h30c16.569 0 30 13.431 30 30zm-60-60-60-60h30c16.569 0 30 13.431 30 30zm0 0 60-60h-30c-16.569 0-30 13.431-30 30zm-420-60 60-60h-30c-16.569 0-30 13.431-30 30zm120 0-60-60h30c16.569 0 30 13.431 30 30zm-60-60-60-60h30c16.569 0 30 13.431 30 30zm0 0 60-60h-30c-16.569 0-30 13.431-30 30zm60 60 60-60h-30c-16.569 0-30 13.431-30 30zm120 0-60-60h30c16.569 0 30 13.431 30 30zm-60-60-60-60h30c16.569 0 30 13.431 30 30zm0 0 60-60h-30c-16.569 0-30 13.431-30 30zm60 60 60-60h-30c-16.569 0-30 13.431-30 30zm120 0-60-60h30c16.569 0 30 13.431 30 30zm-60-60-60-60h30c16.569 0 30 13.431 30 30zm0 0 60-60h-30c-16.569 0-30 13.431-30 30zm60 60 60-60h-30c-16.569 0-30 13.431-30 30zm120 0-60-60h30c16.569 0 30 13.431 30 30zm-60-60-60-60h30c16.569 0 30 13.431 30 30zm0 0 60-60h-30c-16.569 0-30 13.431-30 30zm-420-60 60-60h-30c-16.569 0-30 13.431-30 30zm120 0-60-60h30c16.569 0 30 13.431 30 30zm-60-60-60-60h30c16.569 0 30 13.431 30 30zm0 0 60-60h-30c-16.569 0-30 13.431-30 30zm60 60 60-60h-30c-16.569 0-30 13.431-30 30zm120 0-60-60h30c16.569 0 30 13.431 30 30zm-60-60-60-60h30c16.569 0 30 13.431 30 30zm0 0 60-60h-30c-16.569 0-30 13.431-30 30zm60 60 60-60h-30c-16.569 0-30 13.431-30 30zm120 0-60-60h30c16.569 0 30 13.431 30 30zm-60-60-60-60h30c16.569 0 30 13.431 30 30zm0 0 60-60h-30c-16.569 0-30 13.431-30 30zm60 60 60-60h-30c-16.569 0-30 13.431-30 30zm120 0-60-60h30c16.569 0 30 13.431 30 30zm-60-60-60-60h30c16.569 0 30 13.431 30 30zm0 0 60-60h-30c-16.569 0-30 13.431-30 30z"/></g><path d="m969.707 340.293.707-.707zm-1.414 0-.707-.707zm1.414 1.414.707.707zm-8.293 8.293-.707-.707a1.002 1.002 0 0 0 0 1.414zm8.293 8.293.707-.707zm0 1.414.707.707zm-1.414 0-.707.707zm-8.293-8.293.707-.707a1.002 1.002 0 0 0 -1.414 0zm-8.293 8.293.707.707zm-1.414 0-.707.707zm0-1.414-.707-.707zm8.293-8.293.707.707a1 1 0 0 0 0-1.414zm-8.293-8.293.707-.707zm0-1.414.707.707zm1.414 0-.707.707zm8.293 8.293-.707.707a1 1 0 0 0 1.414 0zm10.414-9a2 2 0 0 0 -2.828 0l1.414 1.414zm0 2.828a2 2 0 0 0 0-2.828l-1.414 1.414zm-8.293 8.293 8.293-8.293-1.414-1.414-8.293 8.293zm-1.414 0 8.293 8.293 1.414-1.414-8.293-8.293zm8.293 8.293 1.414 1.414a2 2 0 0 0 0-2.828zm0 0-1.414 1.414a2 2 0 0 0 2.828 0zm0 0-8.293-8.293-1.414 1.414 8.293 8.293zm-16.586 1.414 8.293-8.293-1.414-1.414-8.293 8.293zm-2.828 0a2 2 0 0 0 2.828 0l-1.414-1.414zm0-2.828a2 2 0 0 0 0 2.828l1.414-1.414zm8.293-8.293-8.293 8.293 1.414 1.414 8.293-8.293zm1.414 0-8.293-8.293-1.414 1.414 8.293 8.293zm-8.293-8.293-1.414-1.414a2 2 0 0 0 0 2.828zm0 0 1.414-1.414a2 2 0 0 0 -2.828 0zm0 0 8.293 8.293 1.414-1.414-8.293-8.293zm16.586-1.414-8.293 8.293 1.414 1.414 8.293-8.293z" fill="url(#q)" filter="url(#a)"/><path d="m129.707 460.293.707-.707zm-1.414 0-.707-.707zm1.414 1.414.707.707zm-8.293 8.293-.707-.707a1.002 1.002 0 0 0 0 1.414zm8.293 8.293.707-.707zm0 1.414.707.707zm-1.414 0-.707.707zm-8.293-8.293.707-.707a1.002 1.002 0 0 0 -1.414 0zm-8.293 8.293.707.707zm-1.414 0-.707.707zm0-1.414-.707-.707zm8.293-8.293.707.707a1 1 0 0 0 0-1.414zm-8.293-8.293.707-.707zm0-1.414.707.707zm1.414 0-.707.707zm8.293 8.293-.707.707a1 1 0 0 0 1.414 0zm10.414-9a2 2 0 0 0 -2.828 0l1.414 1.414zm0 2.828a2 2 0 0 0 0-2.828l-1.414 1.414zm-8.293 8.293 8.293-8.293-1.414-1.414-8.293 8.293zm-1.414 0 8.293 8.293 1.414-1.414-8.293-8.293zm8.293 8.293 1.414 1.414a2 2 0 0 0 0-2.828zm0 0-1.414 1.414a2 2 0 0 0 2.828 0zm0 0-8.293-8.293-1.414 1.414 8.293 8.293zm-16.586 1.414 8.293-8.293-1.414-1.414-8.293 8.293zm-2.828 0a2 2 0 0 0 2.828 0l-1.414-1.414zm0-2.828a2 2 0 0 0 0 2.828l1.414-1.414zm8.293-8.293-8.293 8.293 1.414 1.414 8.293-8.293zm1.414 0-8.293-8.293-1.414 1.414 8.293 8.293zm-8.293-8.293-1.414-1.414a2 2 0 0 0 0 2.828zm0 0 1.414-1.414a2 2 0 0 0 -2.828 0zm0 0 8.293 8.293 1.414-1.414-8.293-8.293zm16.586-1.414-8.293 8.293 1.414 1.414 8.293-8.293z" fill="url(#r)" filter="url(#b)"/><path d="m249.707 220.293.707-.707zm-1.414 0-.707-.707zm1.414 1.414.707.707zm-8.293 8.293-.707-.707a1.002 1.002 0 0 0 0 1.414zm8.293 8.293.707-.707zm0 1.414.707.707zm-1.414 0-.707.707zm-8.293-8.293.707-.707a1.002 1.002 0 0 0 -1.414 0zm-8.293 8.293.707.707zm-1.414 0-.707.707zm0-1.414-.707-.707zm8.293-8.293.707.707a1 1 0 0 0 0-1.414zm-8.293-8.293.707-.707zm0-1.414.707.707zm1.414 0-.707.707zm8.293 8.293-.707.707a1 1 0 0 0 1.414 0zm10.414-9a2 2 0 0 0 -2.828 0l1.414 1.414zm0 2.828a2 2 0 0 0 0-2.828l-1.414 1.414zm-8.293 8.293 8.293-8.293-1.414-1.414-8.293 8.293zm-1.414 0 8.293 8.293 1.414-1.414-8.293-8.293zm8.293 8.293 1.414 1.414a2 2 0 0 0 0-2.828zm0 0-1.414 1.414a2 2 0 0 0 2.828 0zm0 0-8.293-8.293-1.414 1.414 8.293 8.293zm-16.586 1.414 8.293-8.293-1.414-1.414-8.293 8.293zm-2.828 0a2 2 0 0 0 2.828 0l-1.414-1.414zm0-2.828a2 2 0 0 0 0 2.828l1.414-1.414zm8.293-8.293-8.293 8.293 1.414 1.414 8.293-8.293zm1.414 0-8.293-8.293-1.414 1.414 8.293 8.293zm-8.293-8.293-1.414-1.414a2 2 0 0 0 0 2.828zm0 0 1.414-1.414a2 2 0 0 0 -2.828 0zm0 0 8.293 8.293 1.414-1.414-8.293-8.293zm16.586-1.414-8.293 8.293 1.414 1.414 8.293-8.293z" fill="url(#s)" filter="url(#c)"/><path d="m1089.71 220.293.7-.707zm-1.42 0-.7-.707zm1.42 1.414.7.707zm-8.3 8.293-.7-.707a.996.996 0 0 0 -.3.707c0 .265.11.52.3.707zm8.3 8.293.7-.707zm0 1.414.7.707zm-1.42 0-.7.707zm-8.29-8.293.71-.707a1.005 1.005 0 0 0 -1.42 0zm-8.29 8.293.7.707zm-1.42 0-.7.707zm0-1.414-.7-.707zm8.3-8.293.7.707a1 1 0 0 0 0-1.414zm-8.3-8.293.71-.707zm0-1.414.71.707zm1.42 0-.71.707zm8.29 8.293-.71.707c.39.39 1.03.39 1.42 0zm10.41-9a1.99 1.99 0 0 0 -2.82 0l1.41 1.414zm0 2.828c.79-.781.79-2.047 0-2.828l-1.41 1.414zm-8.29 8.293 8.29-8.293-1.41-1.414-8.29 8.293zm-1.41 0 8.29 8.293 1.41-1.414-8.29-8.293zm8.29 8.293 1.41 1.414c.79-.781.79-2.047 0-2.828zm0 0-1.41 1.414a1.99 1.99 0 0 0 2.82 0zm0 0-8.29-8.293-1.42 1.414 8.3 8.293zm-16.59 1.414 8.3-8.293-1.42-1.414-8.29 8.293zm-2.82 0a1.99 1.99 0 0 0 2.82 0l-1.41-1.414zm0-2.828a1.984 1.984 0 0 0 0 2.828l1.41-1.414zm8.29-8.293-8.29 8.293 1.41 1.414 8.29-8.293zm1.41 0-8.29-8.293-1.41 1.414 8.29 8.293zm-8.29-8.293-1.41-1.414a1.984 1.984 0 0 0 0 2.828zm0 0 1.41-1.414a1.99 1.99 0 0 0 -2.82 0zm0 0 8.29 8.293 1.42-1.414-8.3-8.293zm16.59-1.414-8.3 8.293 1.42 1.414 8.29-8.293z" fill="url(#t)" filter="url(#d)"/><path d="m1089.71 580.293.7-.707zm-1.42 0-.7-.707zm1.42 1.414.7.707zm-8.3 8.293-.7-.707a.996.996 0 0 0 -.3.707c0 .265.11.52.3.707zm8.3 8.293.7-.707zm0 1.414.7.707zm-1.42 0-.7.707zm-8.29-8.293.71-.707a1.005 1.005 0 0 0 -1.42 0zm-8.29 8.293.7.707zm-1.42 0-.7.707zm0-1.414-.7-.707zm8.3-8.293.7.707a1 1 0 0 0 0-1.414zm-8.3-8.293.71-.707zm0-1.414.71.707zm1.42 0-.71.707zm8.29 8.293-.71.707c.39.39 1.03.39 1.42 0zm10.41-9a1.99 1.99 0 0 0 -2.82 0l1.41 1.414zm0 2.828c.79-.781.79-2.047 0-2.828l-1.41 1.414zm-8.29 8.293 8.29-8.293-1.41-1.414-8.29 8.293zm-1.41 0 8.29 8.293 1.41-1.414-8.29-8.293zm8.29 8.293 1.41 1.414c.79-.781.79-2.047 0-2.828zm0 0-1.41 1.414a1.99 1.99 0 0 0 2.82 0zm0 0-8.29-8.293-1.42 1.414 8.3 8.293zm-16.59 1.414 8.3-8.293-1.42-1.414-8.29 8.293zm-2.82 0a1.99 1.99 0 0 0 2.82 0l-1.41-1.414zm0-2.828a1.984 1.984 0 0 0 0 2.828l1.41-1.414zm8.29-8.293-8.29 8.293 1.41 1.414 8.29-8.293zm1.41 0-8.29-8.293-1.41 1.414 8.29 8.293zm-8.29-8.293-1.41-1.414a1.984 1.984 0 0 0 0 2.828zm0 0 1.41-1.414a1.99 1.99 0 0 0 -2.82 0zm0 0 8.29 8.293 1.42-1.414-8.3-8.293zm16.59-1.414-8.3 8.293 1.42 1.414 8.29-8.293z" fill="url(#u)" filter="url(#e)"/><path d="m0 0h1200v708h-1200z" fill="url(#v)"/></g></svg>